<mxfile host="app.diagrams.net" agent="Mozilla/5.0 (Windows NT 10.0; Win64; x64) AppleWebKit/537.36 (KHTML, like Gecko) Chrome/135.0.0.0 Safari/537.36" version="26.2.13">
  <diagram name="UseCase №2 (Sequence)" id="4TkSPkXikahYvk48WEcA">
    <mxGraphModel dx="1228" dy="629" grid="1" gridSize="10" guides="1" tooltips="1" connect="1" arrows="1" fold="1" page="1" pageScale="1" pageWidth="1169" pageHeight="827" math="0" shadow="0">
      <root>
        <mxCell id="0" />
        <mxCell id="1" parent="0" />
        <mxCell id="dGepxIjw_q4I2Go3Kk47-24" value="" style="shape=umlLifeline;perimeter=lifelinePerimeter;whiteSpace=wrap;html=1;container=1;dropTarget=0;collapsible=0;recursiveResize=0;outlineConnect=0;portConstraint=eastwest;newEdgeStyle={&quot;curved&quot;:0,&quot;rounded&quot;:0};participant=umlActor;fontSize=15;labelBackgroundColor=default;fontColor=light-dark(#000000,#FFFFFF);" vertex="1" parent="1">
          <mxGeometry x="80" y="50" width="20" height="480" as="geometry" />
        </mxCell>
        <mxCell id="dGepxIjw_q4I2Go3Kk47-25" value="Інтерфейс" style="shape=umlLifeline;perimeter=lifelinePerimeter;whiteSpace=wrap;html=1;container=1;dropTarget=0;collapsible=0;recursiveResize=0;outlineConnect=0;portConstraint=eastwest;newEdgeStyle={&quot;curved&quot;:0,&quot;rounded&quot;:0};" vertex="1" parent="1">
          <mxGeometry x="170" y="50" width="100" height="480" as="geometry" />
        </mxCell>
        <mxCell id="dGepxIjw_q4I2Go3Kk47-26" value="" style="shape=umlDestroy;whiteSpace=wrap;html=1;strokeWidth=3;targetShapes=umlLifeline;" vertex="1" parent="dGepxIjw_q4I2Go3Kk47-25">
          <mxGeometry x="35" y="130" width="30" height="30" as="geometry" />
        </mxCell>
        <mxCell id="dGepxIjw_q4I2Go3Kk47-27" value="Авторизація" style="shape=umlLifeline;perimeter=lifelinePerimeter;whiteSpace=wrap;html=1;container=1;dropTarget=0;collapsible=0;recursiveResize=0;outlineConnect=0;portConstraint=eastwest;newEdgeStyle={&quot;curved&quot;:0,&quot;rounded&quot;:0};" vertex="1" parent="1">
          <mxGeometry x="330" y="50" width="120" height="480" as="geometry" />
        </mxCell>
        <mxCell id="dGepxIjw_q4I2Go3Kk47-28" value="" style="html=1;points=[[0,0,0,0,5],[0,1,0,0,-5],[1,0,0,0,5],[1,1,0,0,-5]];perimeter=orthogonalPerimeter;outlineConnect=0;targetShapes=umlLifeline;portConstraint=eastwest;newEdgeStyle={&quot;curved&quot;:0,&quot;rounded&quot;:0};" vertex="1" parent="dGepxIjw_q4I2Go3Kk47-27">
          <mxGeometry x="52.63" y="60" width="14.75" height="90" as="geometry" />
        </mxCell>
        <mxCell id="dGepxIjw_q4I2Go3Kk47-29" value="Вхід в додаток" style="html=1;verticalAlign=bottom;endArrow=block;curved=0;rounded=0;" edge="1" parent="dGepxIjw_q4I2Go3Kk47-27" target="dGepxIjw_q4I2Go3Kk47-25">
          <mxGeometry relative="1" as="geometry">
            <mxPoint x="-240.5" y="55" as="sourcePoint" />
            <mxPoint x="-139.5" y="55" as="targetPoint" />
          </mxGeometry>
        </mxCell>
        <mxCell id="dGepxIjw_q4I2Go3Kk47-30" value="Модуль моніторингу" style="shape=umlLifeline;perimeter=lifelinePerimeter;whiteSpace=wrap;html=1;container=1;dropTarget=0;collapsible=0;recursiveResize=0;outlineConnect=0;portConstraint=eastwest;newEdgeStyle={&quot;curved&quot;:0,&quot;rounded&quot;:0};" vertex="1" parent="1">
          <mxGeometry x="490" y="50" width="100" height="480" as="geometry" />
        </mxCell>
        <mxCell id="dGepxIjw_q4I2Go3Kk47-31" value="" style="html=1;points=[[0,0,0,0,5],[0,1,0,0,-5],[1,0,0,0,5],[1,1,0,0,-5]];perimeter=orthogonalPerimeter;outlineConnect=0;targetShapes=umlLifeline;portConstraint=eastwest;newEdgeStyle={&quot;curved&quot;:0,&quot;rounded&quot;:0};" vertex="1" parent="dGepxIjw_q4I2Go3Kk47-30">
          <mxGeometry x="45" y="190" width="10" height="130" as="geometry" />
        </mxCell>
        <mxCell id="dGepxIjw_q4I2Go3Kk47-32" value="База даних" style="shape=umlLifeline;perimeter=lifelinePerimeter;whiteSpace=wrap;html=1;container=1;dropTarget=0;collapsible=0;recursiveResize=0;outlineConnect=0;portConstraint=eastwest;newEdgeStyle={&quot;curved&quot;:0,&quot;rounded&quot;:0};" vertex="1" parent="1">
          <mxGeometry x="650" y="50" width="100" height="480" as="geometry" />
        </mxCell>
        <mxCell id="dGepxIjw_q4I2Go3Kk47-33" value="" style="html=1;points=[[0,0,0,0,5],[0,1,0,0,-5],[1,0,0,0,5],[1,1,0,0,-5]];perimeter=orthogonalPerimeter;outlineConnect=0;targetShapes=umlLifeline;portConstraint=eastwest;newEdgeStyle={&quot;curved&quot;:0,&quot;rounded&quot;:0};" vertex="1" parent="dGepxIjw_q4I2Go3Kk47-32">
          <mxGeometry x="45" y="80" width="10" height="30" as="geometry" />
        </mxCell>
        <mxCell id="dGepxIjw_q4I2Go3Kk47-34" value="" style="html=1;points=[[0,0,0,0,5],[0,1,0,0,-5],[1,0,0,0,5],[1,1,0,0,-5]];perimeter=orthogonalPerimeter;outlineConnect=0;targetShapes=umlLifeline;portConstraint=eastwest;newEdgeStyle={&quot;curved&quot;:0,&quot;rounded&quot;:0};" vertex="1" parent="dGepxIjw_q4I2Go3Kk47-32">
          <mxGeometry x="45" y="210" width="10" height="80" as="geometry" />
        </mxCell>
        <mxCell id="dGepxIjw_q4I2Go3Kk47-35" value="Запит на інформацію" style="html=1;verticalAlign=bottom;startArrow=oval;endArrow=block;startSize=8;curved=0;rounded=0;entryX=0;entryY=0;entryDx=0;entryDy=5;" edge="1" parent="dGepxIjw_q4I2Go3Kk47-32" target="dGepxIjw_q4I2Go3Kk47-34">
          <mxGeometry relative="1" as="geometry">
            <mxPoint x="-110.29999999999995" y="215" as="sourcePoint" />
          </mxGeometry>
        </mxCell>
        <mxCell id="dGepxIjw_q4I2Go3Kk47-36" value="" style="html=1;points=[[0,0,0,0,5],[0,1,0,0,-5],[1,0,0,0,5],[1,1,0,0,-5]];perimeter=orthogonalPerimeter;outlineConnect=0;targetShapes=umlLifeline;portConstraint=eastwest;newEdgeStyle={&quot;curved&quot;:0,&quot;rounded&quot;:0};" vertex="1" parent="dGepxIjw_q4I2Go3Kk47-32">
          <mxGeometry x="45" y="350" width="10" height="80" as="geometry" />
        </mxCell>
        <mxCell id="dGepxIjw_q4I2Go3Kk47-37" value="Запит на авторизацію" style="html=1;verticalAlign=bottom;endArrow=block;curved=0;rounded=0;entryX=0;entryY=0;entryDx=0;entryDy=5;" edge="1" parent="1" source="dGepxIjw_q4I2Go3Kk47-25" target="dGepxIjw_q4I2Go3Kk47-28">
          <mxGeometry relative="1" as="geometry">
            <mxPoint x="199.5" y="105" as="sourcePoint" />
          </mxGeometry>
        </mxCell>
        <mxCell id="dGepxIjw_q4I2Go3Kk47-38" value="Дані успішні" style="html=1;verticalAlign=bottom;endArrow=open;dashed=1;endSize=8;curved=0;rounded=0;exitX=0;exitY=1;exitDx=0;exitDy=-5;" edge="1" parent="1" source="dGepxIjw_q4I2Go3Kk47-28" target="dGepxIjw_q4I2Go3Kk47-25">
          <mxGeometry relative="1" as="geometry">
            <mxPoint x="220" y="175" as="targetPoint" />
          </mxGeometry>
        </mxCell>
        <mxCell id="dGepxIjw_q4I2Go3Kk47-39" value="Пошук в базі даних" style="html=1;verticalAlign=bottom;endArrow=block;curved=0;rounded=0;entryX=0;entryY=0;entryDx=0;entryDy=5;" edge="1" parent="1" target="dGepxIjw_q4I2Go3Kk47-33">
          <mxGeometry relative="1" as="geometry">
            <mxPoint x="400" y="130" as="sourcePoint" />
          </mxGeometry>
        </mxCell>
        <mxCell id="dGepxIjw_q4I2Go3Kk47-40" value="Відповідь успішна" style="html=1;verticalAlign=bottom;endArrow=open;dashed=1;endSize=8;curved=0;rounded=0;exitX=0;exitY=1;exitDx=0;exitDy=-5;exitPerimeter=0;" edge="1" parent="1" source="dGepxIjw_q4I2Go3Kk47-33" target="dGepxIjw_q4I2Go3Kk47-28">
          <mxGeometry relative="1" as="geometry">
            <mxPoint x="625" y="185" as="targetPoint" />
          </mxGeometry>
        </mxCell>
        <mxCell id="dGepxIjw_q4I2Go3Kk47-41" value="Дані про транспортні засоби" style="html=1;verticalAlign=bottom;startArrow=oval;endArrow=block;startSize=8;curved=0;rounded=0;entryX=0;entryY=0;entryDx=0;entryDy=5;" edge="1" parent="1" source="dGepxIjw_q4I2Go3Kk47-25" target="dGepxIjw_q4I2Go3Kk47-31">
          <mxGeometry relative="1" as="geometry">
            <mxPoint x="470" y="225" as="sourcePoint" />
          </mxGeometry>
        </mxCell>
        <mxCell id="dGepxIjw_q4I2Go3Kk47-42" value="" style="html=1;verticalAlign=bottom;endArrow=open;dashed=1;endSize=8;curved=0;rounded=0;entryX=1.056;entryY=0.69;entryDx=0;entryDy=0;entryPerimeter=0;" edge="1" parent="1" source="dGepxIjw_q4I2Go3Kk47-34" target="dGepxIjw_q4I2Go3Kk47-31">
          <mxGeometry relative="1" as="geometry">
            <mxPoint x="695" y="330" as="sourcePoint" />
            <mxPoint x="545" y="330" as="targetPoint" />
          </mxGeometry>
        </mxCell>
        <mxCell id="dGepxIjw_q4I2Go3Kk47-43" value="Повернення інформації" style="html=1;verticalAlign=bottom;endArrow=open;dashed=1;endSize=8;curved=0;rounded=0;" edge="1" parent="1">
          <mxGeometry relative="1" as="geometry">
            <mxPoint x="535" y="360" as="sourcePoint" />
            <mxPoint x="219.70000000000005" y="360" as="targetPoint" />
          </mxGeometry>
        </mxCell>
        <mxCell id="dGepxIjw_q4I2Go3Kk47-44" value="Повідомлення водіям" style="html=1;verticalAlign=bottom;endArrow=block;curved=0;rounded=0;entryX=0;entryY=0;entryDx=0;entryDy=5;" edge="1" parent="1" source="dGepxIjw_q4I2Go3Kk47-25" target="dGepxIjw_q4I2Go3Kk47-36">
          <mxGeometry relative="1" as="geometry">
            <mxPoint x="785" y="405" as="sourcePoint" />
          </mxGeometry>
        </mxCell>
        <mxCell id="dGepxIjw_q4I2Go3Kk47-45" value="Відповідь про успішне отримання" style="html=1;verticalAlign=bottom;endArrow=open;dashed=1;endSize=8;curved=0;rounded=0;exitX=0;exitY=1;exitDx=0;exitDy=-5;" edge="1" parent="1" source="dGepxIjw_q4I2Go3Kk47-36" target="dGepxIjw_q4I2Go3Kk47-25">
          <mxGeometry relative="1" as="geometry">
            <mxPoint x="785" y="475" as="targetPoint" />
          </mxGeometry>
        </mxCell>
        <mxCell id="dGepxIjw_q4I2Go3Kk47-46" value="Диспетчер" style="text;align=center;fontStyle=1;verticalAlign=middle;spacingLeft=3;spacingRight=3;strokeColor=none;rotatable=0;points=[[0,0.5],[1,0.5]];portConstraint=eastwest;html=1;" vertex="1" parent="1">
          <mxGeometry x="50" y="24" width="80" height="26" as="geometry" />
        </mxCell>
      </root>
    </mxGraphModel>
  </diagram>
</mxfile>
